<svg width="29" height="28" viewBox="0 0 29 28" fill="none" xmlns="http://www.w3.org/2000/svg">
<path d="M26.0206 6.97807C26.0398 7.28505 26.0398 7.59028 26.0398 7.8955C26.0398 17.2364 20.0589 28 9.12854 28C5.76104 28 2.63261 26.8405 0 24.8267C0.478119 24.8916 0.93853 24.9144 1.43583 24.9144C4.11122 24.9221 6.71086 23.8587 8.81569 21.8955C7.57527 21.8688 6.37282 21.3823 5.37624 20.504C4.37966 19.6256 3.6387 18.3993 3.25682 16.9961C3.62426 17.061 3.99318 17.1049 4.37981 17.1049C4.91253 17.1049 5.4482 17.0172 5.9455 16.8646C4.59933 16.5415 3.38885 15.6741 2.51989 14.4099C1.65093 13.1458 1.17714 11.5628 1.17907 9.93033V9.84263C1.9715 10.3671 2.89085 10.6952 3.8648 10.739C3.04888 10.0945 2.37985 9.21994 1.91741 8.19334C1.45496 7.16675 1.21347 6.02004 1.21448 4.85553C1.21448 3.54342 1.50814 2.34006 2.02315 1.29107C3.51674 3.47504 5.37958 5.26173 7.49103 6.53542C9.60248 7.80912 11.9154 8.54141 14.2801 8.68488C14.1886 8.15863 14.1326 7.61308 14.1326 7.06578C14.1322 6.13776 14.2856 5.21875 14.5842 4.36128C14.8828 3.50381 15.3206 2.7247 15.8727 2.06849C16.4247 1.41228 17.0801 0.891838 17.8014 0.536912C18.5228 0.181987 19.2959 -0.000460257 20.0766 8.71931e-07C21.7884 8.71931e-07 23.3334 0.852525 24.4195 2.2313C25.7502 1.9254 27.0263 1.34794 28.1913 0.524496C27.7478 2.1573 26.8186 3.54184 25.5779 4.41874C26.7581 4.25873 27.9116 3.88978 29 3.32415C28.1871 4.73291 27.1798 5.96828 26.0206 6.97807Z" fill="white" fill-opacity="0.78"/>
</svg>
