<svg width="589" height="556" viewBox="0 0 589 556" fill="none" xmlns="http://www.w3.org/2000/svg">
<path opacity="0.4" d="M335.43 250.044C328.204 245.968 323.019 245.884 319.874 249.711C316.644 253.538 315.114 260.027 315.114 269.094V318.177C315.114 327.494 314.264 335.231 312.478 341.387C310.693 347.793 307.718 352.285 303.638 354.947C299.643 357.692 294.202 358.358 287.317 357.11C280.602 355.945 272.186 352.451 262.155 346.794L257.395 344.049V305.365L263.43 308.776C270.656 312.853 275.416 313.352 277.796 310.44C280.346 307.528 281.622 301.539 281.622 292.471V249.212C281.622 237.898 282.727 228.997 285.022 222.508C287.232 215.936 291.737 211.776 298.453 209.946C291.737 200.546 287.232 191.228 285.022 182.16C282.812 173.093 281.707 162.943 281.707 151.63V108.371C281.707 99.3028 280.432 91.8156 277.881 86.0755C275.501 80.4185 270.656 75.5103 263.515 71.434L257.48 68.0232V29.3396L262.24 32.0849C272.271 37.7418 280.687 43.8147 287.402 50.2204C294.287 56.7093 299.728 63.5309 303.723 70.8516C307.888 78.1724 310.863 85.9923 312.563 94.3945C314.349 102.547 315.199 111.282 315.199 120.6V169.682C315.199 178.75 316.814 187.069 319.959 194.473C323.189 201.877 328.374 207.7 335.515 211.693L335.43 250.044Z" fill="url(#paint0_linear_1_421)"/>
<path opacity="0.4" d="M153.349 107.871C160.574 111.948 165.759 112.031 168.905 108.204C172.135 104.377 173.665 97.8884 173.665 88.8207V39.7383C173.665 30.421 174.515 22.6843 176.3 16.5282C178.085 10.1225 180.975 5.63024 184.971 2.88496C189.136 0.222861 194.576 -0.442663 201.291 0.722004C208.177 1.96986 216.677 5.46386 226.708 11.204L231.468 13.9493V52.6328L225.433 49.222C218.207 45.1457 213.362 44.5634 210.812 47.475C208.432 50.4699 207.242 56.4596 207.242 65.6106V108.87C207.242 120.1 206.137 129.085 203.842 135.574C201.631 142.146 197.126 146.305 190.411 148.135C197.126 157.536 201.631 166.853 203.842 175.921C206.052 184.989 207.157 195.138 207.157 206.452V249.711C207.157 258.779 208.347 266.183 210.727 271.923C213.277 277.663 218.122 282.654 225.348 286.648L231.383 290.058V328.742L226.623 325.997C216.592 320.34 208.092 314.184 201.206 307.778C194.491 301.372 189.051 294.551 184.885 287.147C180.89 279.909 178 272.089 176.3 263.77C174.515 255.618 173.665 246.883 173.665 237.565V188.483C173.665 179.415 172.05 171.096 168.905 163.692C165.674 156.288 160.489 150.465 153.349 146.472V107.871Z" fill="url(#paint1_linear_1_421)"/>
<path opacity="0.15" d="M359.996 10.8713L539.442 112.28L539.357 533.307L359.911 431.981L359.996 10.8713Z" fill="url(#paint2_linear_1_421)"/>
<path d="M326.249 66.0266L469.058 146.638V185.322L326.249 104.71V66.0266Z" fill="#587298"/>
<path opacity="0.2" d="M383.373 245.136L518.701 321.588V438.637L383.373 362.185V245.136Z" fill="url(#paint3_linear_1_421)"/>
<path opacity="0.15" d="M382.012 155.373L519.38 232.99V246.217L382.012 168.6V155.373Z" fill="white"/>
<path opacity="0.15" d="M382.012 181.994L500.764 249.045V262.273L382.012 195.221V181.994Z" fill="white"/>
<path opacity="0.15" d="M382.012 208.282L482.828 265.184V278.412L382.012 221.509V208.282Z" fill="white"/>
<path opacity="0.2" d="M359.996 10.8713L539.442 112.28V168.684L359.911 67.3577L359.996 10.8713Z" fill="url(#paint4_linear_1_421)"/>
<path opacity="0.2" d="M404.794 64.7787C404.794 73.3474 399.693 77.3405 393.403 73.7633C387.113 70.1861 382.012 60.4528 382.012 51.8842C382.012 43.3156 387.113 39.3225 393.403 42.8997C399.693 46.4768 404.794 56.2933 404.794 64.7787Z" fill="white"/>
<path opacity="0.15" d="M36.6372 139.817L589 451.781L588.915 873.057L36.5522 561.093L36.6372 139.817Z" fill="url(#paint5_linear_1_421)"/>
<path d="M0 243.638L142.723 324.25V362.933L0 282.405V243.638Z" fill="#EA8C4F"/>
<path opacity="0.15" d="M73.8689 349.956L390.768 528.982V542.209L73.8689 363.183V349.956Z" fill="white"/>
<path opacity="0.15" d="M73.8689 376.577L347.245 530.978V544.205L73.8689 389.804V376.577Z" fill="white"/>
<path opacity="0.15" d="M73.8689 402.948L306.528 534.389V547.616L73.8689 416.175V402.948Z" fill="white"/>
<path opacity="0.2" d="M22.0158 416.092L253.995 547.117V664.166L22.0158 533.058V416.092Z" fill="url(#paint6_linear_1_421)"/>
<path opacity="0.15" d="M45.3922 459.268L229.683 563.339V576.566L45.3922 472.495V459.268Z" fill="white"/>
<path opacity="0.15" d="M45.3922 485.889L192.961 569.246V582.473L45.3922 499.033V485.889Z" fill="white"/>
<path opacity="0.2" d="M36.6368 139.817L588.235 451.448V508.517L36.6368 196.968V139.817Z" fill="url(#paint7_linear_1_421)"/>
<path opacity="0.2" d="M96.7358 202.293C96.7358 210.861 91.6355 214.854 85.3451 211.277C79.0547 207.7 73.9544 197.967 73.9544 189.398C73.9544 180.83 79.0547 176.836 85.3451 180.414C91.6355 183.991 96.7358 193.807 96.7358 202.293Z" fill="white"/>
<defs>
<linearGradient id="paint0_linear_1_421" x1="384.36" y1="17.6643" x2="249.597" y2="256.382" gradientUnits="userSpaceOnUse">
<stop stop-color="#424C57"/>
<stop offset="0.903" stop-color="white" stop-opacity="0"/>
</linearGradient>
<linearGradient id="paint1_linear_1_421" x1="303.984" y1="1.65132" x2="169.204" y2="240.34" gradientUnits="userSpaceOnUse">
<stop stop-color="#414B56"/>
<stop offset="0.903" stop-color="white" stop-opacity="0"/>
</linearGradient>
<linearGradient id="paint2_linear_1_421" x1="542.816" y1="114.193" x2="376.723" y2="408.227" gradientUnits="userSpaceOnUse">
<stop stop-color="white"/>
<stop offset="1" stop-color="white" stop-opacity="0"/>
</linearGradient>
<linearGradient id="paint3_linear_1_421" x1="476.95" y1="297.936" x2="430.787" y2="379.656" gradientUnits="userSpaceOnUse">
<stop stop-color="white"/>
<stop offset="1" stop-color="white" stop-opacity="0"/>
</linearGradient>
<linearGradient id="paint4_linear_1_421" x1="421.521" y1="11.7461" x2="474.171" y2="164.053" gradientUnits="userSpaceOnUse">
<stop stop-color="#424C58"/>
<stop offset="1" stop-color="white" stop-opacity="0"/>
</linearGradient>
<linearGradient id="paint5_linear_1_421" x1="405.97" y1="348.402" x2="317.994" y2="504.183" gradientUnits="userSpaceOnUse">
<stop stop-color="white"/>
<stop offset="1" stop-color="white" stop-opacity="0"/>
</linearGradient>
<linearGradient id="paint6_linear_1_421" x1="163.887" y1="496.192" x2="117.725" y2="577.912" gradientUnits="userSpaceOnUse">
<stop stop-color="#434D58"/>
<stop offset="1" stop-color="white" stop-opacity="0"/>
</linearGradient>
<linearGradient id="paint7_linear_1_421" x1="173.501" y1="93.8343" x2="376.314" y2="444.883" gradientUnits="userSpaceOnUse">
<stop stop-color="#546F94"/>
<stop offset="1" stop-color="white" stop-opacity="0"/>
</linearGradient>
</defs>
</svg>
